#!OML:ASF H:\charlestonDancing\Project 1\Capture day 1\Session 1\femaleDancer.ASF
:FULLY-SPECIFIED
:DEGREES
420
root -14.3965 17.3644 1.57603 4.81586 -104.667 -10.0235
lowerback 21.3868 -6.18432 -1.51967
upperback 4.31936 -8.79128 -0.0641815
thorax -6.90406 -4.3757 3.13366
lowerneck 5.86024 -8.51617 -6.1246
upperneck -7.1573 -11.6802 4.12981
head -2.69782 -5.82834 2.82914
rclavicle 3.83406e-014 -1.83876e-015
rhumerus -221.1 183.056 -247.339
rradius 50.6468
rwrist 32.0021
rhand -32.6568 -51.9758
rfingers 7.12502
rthumb 174.117 98.1259
lclavicle 3.83406e-014 -1.83876e-015
lhumerus -10.1433 -15.8157 47.3611
lradius 63.0118
lwrist -13.9722
lhand -23.2379 1.69836
lfingers 7.12502
lthumb 3.21333 31.6539
rfemur -56.958 -8.31627 9.40295
rtibia 61.5529
rfoot 15.4206 5.80716
rtoes -9.20602
lfemur -7.63977 15.9005 -26.7692
ltibia 39.0896
lfoot -28.5482 12.3203
ltoes -9.27529
421
root -14.5119 17.3188 1.45967 5.5545 -104.613 -10.7253
lowerback 20.6947 -6.67628 -1.75079
upperback 3.88608 -9.43882 0.0597742
thorax -6.92187 -4.66602 3.49712
lowerneck 5.76247 -8.49437 -5.78211
upperneck -6.65764 -11.6801 3.17311
head -2.58729 -5.80586 2.43338
rclavicle 1.50381e-013 -3.74709e-014
rhumerus -222.308 182.032 -247.794
rradius 50.8122
rwrist 31.7318
rhand -32.5435 -52.1186
rfingers 7.12502
rthumb 174.227 97.9801
lclavicle 1.50381e-013 -3.74709e-014
lhumerus -10.591 -16.9837 49.9831
lradius 63.2102
lwrist -13.8638
lhand -22.6228 1.75994
lfingers 7.12502
lthumb 3.80738 31.7057
rfemur -54.6118 -7.09348 8.66451
rtibia 64.3928
rfoot 15.225 7.65778
rtoes -7.76796
lfemur -7.4019 15.8795 -26.5134
ltibia 39.6556
lfoot -29.0577 11.8883
ltoes -9.46927
422
root -14.6246 17.2768 1.34137 5.99492 -104.602 -11.1369
lowerback 20.0929 -7.10896 -1.90513
upperback 3.46902 -9.99632 0.202778
thorax -6.97337 -4.91438 3.8178
lowerneck 5.67975 -8.43022 -5.5437
upperneck -6.2346 -11.6165 2.43138
head -2.49053 -5.75869 2.13215
rclavicle 6.95746e-015 7.35503e-015
rhumerus -223.633 181.05 -248.248
rradius 51.1469
rwrist 31.5097
rhand -32.3872 -52.0108
rfingers 7.12502
rthumb 174.377 98.0838
lclavicle 6.95746e-015 7.35503e-015
lhumerus -10.9758 -18.1257 52.6662
lradius 63.3162
lwrist -14.2463
lhand -21.8343 1.06113
lfingers 7.12502
lthumb 4.56879 30.9919
rfemur -52.2091 -6.06399 8.37232
rtibia 66.7248
rfoot 15.9331 9.00033
rtoes -7.0963
lfemur -7.12323 15.8031 -26.1716
ltibia 40.1525
lfoot -29.6242 11.3647
ltoes -9.20254
423
root -14.7441 17.2366 1.2267 8.01005 -104.438 -13.1812
lowerback 19.4795 -7.54708 -2.16941
upperback 3.07948 -10.5989 0.175991
thorax -6.99157 -5.18564 4.01581
lowerneck 5.40461 -8.37493 -5.24212
upperneck -5.70859 -11.5401 1.76157
head -2.32425 -5.71277 1.83045
rclavicle -6.95746e-015 2.68359e-014
rhumerus -225.117 180.32 -248.675
rradius 51.5999
rwrist 31.2945
rhand -32.1532 -51.6758
rfingers 7.12502
rthumb 174.603 98.4129
lclavicle -6.95746e-015 2.68359e-014
lhumerus -11.3189 -19.1997 55.4099
lradius 63.5464
lwrist -15.1191
lhand -21.7342 0.796072
lfingers 7.12502
lthumb 4.66545 30.7247
rfemur -49.6489 -5.73513 7.93344
rtibia 68.4266
rfoot 17.5319 9.53979
rtoes -6.0426
lfemur -6.80782 15.5862 -26.2735
ltibia 40.682
lfoot -30.1976 10.9291
ltoes -9.50494
424
root -14.8732 17.1946 1.11141 10.7627 -104.285 -16.068
lowerback 18.8966 -7.89467 -2.39232
upperback 2.75251 -11.0873 0.0198353
thorax -6.99401 -5.40684 4.02135
lowerneck 4.9309 -8.38974 -4.77498
upperneck -5.11874 -11.5362 1.03478
head -2.11252 -5.70823 1.47635
rclavicle -1.70806e-013 4.29375e-014
rhumerus -226.783 179.997 -248.969
rradius 51.9326
rwrist 31.3292
rhand -32.0795 -51.0775
rfingers 7.12502
rthumb 174.675 99.0094
lclavicle -1.70806e-013 4.29375e-014
lhumerus -11.552 -20.3365 58.2238
lradius 64.0377
lwrist -16.1319
lhand -21.394 0.92779
lfingers 7.12502
lthumb 4.99388 30.8489
rfemur -46.7964 -5.78593 7.4351
rtibia 69.483
rfoot 18.6042 10.3334
rtoes -8.01781
lfemur -6.33938 15.358 -26.5865
ltibia 41.2357
lfoot -30.8068 10.6675
ltoes -10.4645
425
root -14.98 17.1515 0.979043 10.6003 -104.375 -15.7004
lowerback 18.3819 -8.007 -2.22639
upperback 2.4172 -11.1668 0.183314
thorax -7.07421 -5.43376 4.07379
lowerneck 4.37268 -8.47587 -4.33586
upperneck -4.66538 -11.6233 0.420322
head -1.92309 -5.75254 1.16947
rclavicle 1.70557e-013 -1.39149e-014
rhumerus -228.363 180.087 -249.085
rradius 51.9263
rwrist 31.4932
rhand -31.8439 -50.0289
rfingers 7.12502
rthumb 174.902 100.052
lclavicle 1.70557e-013 -1.39149e-014
lhumerus -11.6569 -21.5756 61.0714
lradius 64.6958
lwrist -17.1236
lhand -20.0675 0.0819976
lfingers 7.12502
lthumb 6.27464 29.9691
rfemur -44.388 -5.20105 8.13876
rtibia 69.6043
rfoot 18.8177 9.52055
rtoes -7.95363
lfemur -6.37962 15.2862 -26.0706
ltibia 41.9634
lfoot -31.366 10.4819
ltoes -11.3726
426
root -15.0991 17.0924 0.847104 11.2742 -104.486 -16.0186
lowerback 17.4757 -8.08655 -2.11666
upperback 2.16283 -11.2115 0.327497
thorax -6.8501 -5.45988 4.05378
lowerneck 3.81185 -8.582 -4.11562
upperneck -4.35193 -11.7406 0.0695421
head -1.75312 -5.81458 0.986365
rclavicle 2.68856e-014 2.62396e-014
rhumerus -229.636 180.352 -249.224
rradius 51.5925
rwrist 31.2697
rhand -31.717 -50.554
rfingers 7.12502
rthumb 175.025 99.5244
lclavicle 2.68856e-014 2.62396e-014
lhumerus -11.7013 -23.1819 63.8405
lradius 65.4452
lwrist -17.5878
lhand -19.0451 -0.579716
lfingers 7.12502
lthumb 7.26163 29.2757
rfemur -41.9856 -5.10994 8.8556
rtibia 68.9957
rfoot 13.9359 8.77127
rtoes -20.17
lfemur -6.63094 15.3046 -25.7565
ltibia 42.8484
lfoot -31.9373 10.2113
ltoes -12.5179
427
root -15.2266 17.0117 0.718803 13.2843 -104.797 -17.7027
lowerback 16.5208 -8.07856 -2.27469
upperback 1.90192 -11.1988 0.366472
thorax -6.57873 -5.45438 4.04352
lowerneck 3.40218 -8.68229 -4.16652
upperneck -4.18006 -11.8599 -0.00551039
head -1.62495 -5.87751 0.943265
rclavicle 2.15085e-013 -4.05521e-014
rhumerus -230.739 180.777 -249.208
rradius 50.9326
rwrist 31.0506
rhand -31.5477 -50.316
rfingers 7.12502
rthumb 175.188 99.7586
lclavicle 2.15085e-013 -4.05521e-014
lhumerus -11.8374 -25.3591 66.5119
lradius 66.304
lwrist -17.3784
lhand -18.8492 -0.431319
lfingers 7.12502
lthumb 7.45074 29.4175
rfemur -39.6325 -5.56094 9.32256
rtibia 67.9485
rfoot 4.93006 7.43331
rtoes -27.3403
lfemur -6.95196 15.4602 -25.8862
ltibia 43.9134
lfoot -32.6361 9.91571
ltoes -13.7162
428
root -15.3557 16.9359 0.587069 14.5227 -105.306 -18.4866
lowerback 15.5869 -7.94496 -2.35254
upperback 1.58948 -10.9963 0.52245
thorax -6.37531 -5.35315 4.08563
lowerneck 3.17718 -8.80587 -4.55939
upperneck -4.21308 -12.0228 0.24779
head -1.55425 -5.96038 1.07007
rclavicle 6.45056e-014 -3.06128e-014
rhumerus -231.696 181.183 -249.143
rradius 49.9595
rwrist 30.5749
rhand -31.2422 -50.2885
rfingers 7.12502
rthumb 175.483 99.7797
lclavicle 6.45056e-014 -3.06128e-014
lhumerus -12.0647 -27.8238 69.2693
lradius 67.1644
lwrist -16.9117
lhand -19.113 -0.206949
lfingers 7.12502
lthumb 7.19607 29.6507
rfemur -37.6638 -5.40273 9.62445
rtibia 66.4424
rfoot -1.66768 4.6321
rtoes -22.363
lfemur -7.44164 15.8405 -25.8471
ltibia 45.142
lfoot -33.4114 9.412
ltoes -14.5514
429
root -15.4755 16.8749 0.463162 15.2315 -105.812 -18.4775
lowerback 14.6014 -7.83678 -2.28618
upperback 1.20328 -10.7933 0.811314
thorax -6.2202 -5.25044 4.19171
lowerneck 3.08883 -8.88705 -4.953
upperneck -4.45829 -12.1438 0.472835
head -1.57784 -6.01794 1.20432
rclavicle 8.14023e-014 9.54166e-015
rhumerus -232.278 181.415 -249.162
rradius 48.6372
rwrist 29.8521
rhand -30.9412 -50.5514
rfingers 7.12502
rthumb 175.774 99.5108
lclavicle 8.14023e-014 9.54166e-015
lhumerus -12.4322 -30.1564 72.0743
lradius 68.0243
lwrist -16.6454
lhand -19.6146 -0.00750338
lfingers 7.12502
lthumb 6.71185 29.8661
rfemur -36.2091 -6.23204 10.6303
rtibia 65.2435
rfoot -7.29524 1.85716
rtoes -29.4911
lfemur -8.22999 16.325 -25.6863
ltibia 46.4542
lfoot -34.0292 8.98154
ltoes -15.7562
430
root -15.5841 16.805 0.338596 13.1453 -106.662 -15.701
lowerback 13.9099 -7.64438 -1.62465
upperback 0.909543 -10.3931 1.1981
thorax -6.22676 -5.06242 4.09512
lowerneck 2.99131 -8.87795 -4.79742
upperneck -4.80923 -12.1489 0.22578
head -1.69899 -6.0142 1.11413
rclavicle 9.0447e-015 -7.15625e-015
rhumerus -232.354 181.517 -249.461
rradius 46.9063
rwrist 28.9028
rhand -31.0658 -50.5237
rfingers 7.12502
rthumb 175.653 99.5409
lclavicle 9.0447e-015 -7.15625e-015
lhumerus -12.896 -32.363 74.5566
lradius 69.0557
lwrist -16.8829
lhand -19.699 -0.0224116
lfingers 7.12502
lthumb 6.63037 29.8538
rfemur -35.3074 -5.56803 12.0111
rtibia 63.9551
rfoot -11.8194 -0.247778
rtoes -27.5305
lfemur -9.03127 17.1295 -24.6989
ltibia 47.9763
lfoot -34.6633 8.5844
ltoes -16.8478
431
root -15.6814 16.7561 0.222088 10.39 -107.862 -12.3646
lowerback 13.5715 -7.35299 -0.742665
upperback 0.655802 -9.84394 1.54281
thorax -6.43384 -4.80345 3.86619
lowerneck 2.70082 -8.79905 -4.11616
upperneck -4.98529 -12.0582 -0.563063
head -1.79804 -5.96382 0.761687
rclavicle -6.77856e-014 3.97569e-015
rhumerus -231.942 181.44 -250.029
rradius 44.7727
rwrist 27.7985
rhand -31.3322 -50.0473
rfingers 7.12502
rthumb 175.396 100.023
lclavicle -6.77856e-014 3.97569e-015
lhumerus -13.5438 -34.6362 76.8131
lradius 70.3063
lwrist -17.574
lhand -19.4619 -0.342022
lfingers 7.12502
lthumb 6.85924 29.5269
rfemur -34.6818 -3.89455 13.1411
rtibia 62.7893
rfoot -14.9157 -0.760253
rtoes -24.2265
lfemur -9.70098 18.0316 -23.4602
ltibia 49.5944
lfoot -35.2866 7.88043
ltoes -17.1742
432
root -15.7691 16.7123 0.116682 8.13211 -109.331 -9.37785
lowerback 13.2618 -7.05277 0.0412718
upperback 0.341853 -9.2998 1.92491
thorax -6.68881 -4.54523 3.73646
lowerneck 2.37237 -8.60784 -3.33878
upperneck -5.03728 -11.8234 -1.50179
head -1.86789 -5.84366 0.342877
rclavicle -2.11706e-014 -2.38542e-015
rhumerus -230.952 180.859 -250.821
rradius 42.3378
rwrist 26.732
rhand -31.4227 -49.0907
rfingers 7.12502
rthumb 175.309 100.981
lclavicle -2.11706e-014 -2.38542e-015
lhumerus -14.636 -36.7183 79.1341
lradius 71.7567
lwrist -18.4471
lhand -19.3274 -0.643805
lfingers 7.12502
lthumb 6.98907 29.2208
rfemur -34.5078 -2.013 14.1629
rtibia 61.6728
rfoot -17.1329 -0.690121
rtoes -21.1543
lfemur -10.5499 18.8374 -22.3323
ltibia 51.3483
lfoot -35.5431 7.13174
ltoes -16.3818
433
root -15.8552 16.6726 0.0379563 5.6979 -111.341 -6.21589
lowerback 13.0502 -6.79683 1.01795
upperback 0.0299624 -8.78827 2.33317
thorax -7.01232 -4.31219 3.54914
lowerneck 2.62335 -8.18273 -3.01171
upperneck -5.4177 -11.3048 -1.97662
head -2.09033 -5.57262 0.16576
rclavicle -1.87852e-014 2.70347e-014
rhumerus -229.248 179.573 -251.902
rradius 39.5601
rwrist 25.9026
rhand -30.8394 -47.749
rfingers 7.12502
rthumb 175.872 102.311
lclavicle -1.87852e-014 2.70347e-014
lhumerus -16.2915 -38.2226 81.5027
lradius 73.376
lwrist -19.0524
lhand -19.2167 -0.839353
lfingers 7.12502
lthumb 7.09596 29.0217
rfemur -34.4578 -0.192581 15.3197
rtibia 60.6686
rfoot -18.5341 -0.0149927
rtoes -18.4861
lfemur -11.2115 19.6446 -21.1458
ltibia 53.0525
lfoot -35.6347 6.55618
ltoes -14.7118
